<?xml version="1.0" encoding="UTF-8"?>
<!DOCTYPE svg PUBLIC "-//W3C//DTD SVG 1.1//EN" "http://www.w3.org/Graphics/SVG/1.1/DTD/svg11.dtd">
<!-- Creator: CorelDRAW 2020 (64-Bit Evaluation Version) -->
<svg xmlns="http://www.w3.org/2000/svg" xml:space="preserve" width="2.15647in" height="0.80087in" version="1.1" style="shape-rendering:geometricPrecision; text-rendering:geometricPrecision; image-rendering:optimizeQuality; fill-rule:evenodd; clip-rule:evenodd"
viewBox="0 0 2156.46 800.87"
 xmlns:xlink="http://www.w3.org/1999/xlink"
 xmlns:xodm="http://www.corel.com/coreldraw/odm/2003">
 <defs>
  <style type="text/css">
   <![CDATA[
    .fil2 {fill:#373435}
    .fil1 {fill:#FFDD21}
    .fil3 {fill:#EC268F}
    .fil0 {fill:#00AFEF}
    .fil5 {fill:#FEFEFE;fill-rule:nonzero}
    .fil4 {fill:#373435;fill-rule:nonzero}
   ]]>
  </style>
 </defs>
 <g id="Layer_x0020_1">
  <metadata id="CorelCorpID_0Corel-Layer"/>
  <g id="_1356493575152">
   <polygon class="fil0" points="-0,209.21 235.78,209.21 118.38,406.03 "/>
   <polygon class="fil1" points="472.51,209.21 707.33,209.21 589.92,406.03 "/>
   <polygon class="fil2" points="471.55,602.85 235.78,602.85 354.15,406.03 "/>
   <polygon class="fil1" points="118.38,406.03 354.15,406.03 235.78,602.85 "/>
   <polygon class="fil3" points="118.38,406.03 354.15,406.03 235.78,209.21 "/>
   <polygon class="fil2" points="118.38,799.66 354.15,799.66 235.78,602.85 "/>
   <polygon class="fil0" points="471.55,602.85 235.78,602.85 354.15,799.66 "/>
   <polygon class="fil0" points="589.92,406.03 354.15,406.03 472.52,209.21 "/>
   <polygon class="fil3" points="589.92,406.03 354.15,406.03 471.55,602.85 "/>
   <path class="fil4" d="M901.55 414.87c0,17.74 4.81,32.04 14.3,42.91 9.49,10.86 22.14,16.36 37.68,16.36 15.81,0 28.46,-5.36 37.81,-16.09 9.49,-10.73 14.17,-25.17 14.17,-43.18 0,-18.15 -4.81,-32.86 -14.3,-43.87 -9.49,-11 -22.14,-16.5 -37.68,-16.5 -15.54,0 -28.19,5.64 -37.68,16.78 -9.49,11.14 -14.3,25.72 -14.3,43.59zm110.42 209.57l0 -62.84c-20.22,26.81 -41.26,46.62 -63.26,59.41 -22,12.79 -46.34,19.11 -72.88,19.11 -48.4,0 -88.42,-20.49 -120.32,-61.61 -31.77,-41.11 -47.72,-94.05 -47.72,-158.68 0,-67.8 15.54,-122.25 46.48,-163.36 31.08,-41.26 71.51,-61.88 121.56,-61.88 25.72,0 49.09,5.64 70.27,16.78 21.04,11.14 40.57,28.33 58.58,51.7l0 -55.14 193.76 0 0 416.52 -186.47 0z"/>
   <path class="fil4" d="M1239.96 594.6l53.63 -128.57c22.28,14.99 42.63,26.4 61.19,34.24 18.56,7.84 34.38,11.69 47.58,11.69 10.72,0 18.84,-2.06 24.48,-6.19 5.64,-4.26 8.52,-10.04 8.52,-17.6 0,-10.45 -11.96,-18.15 -35.89,-22.96 -7.98,-1.51 -14.3,-2.89 -18.84,-3.99 -39.33,-9.63 -67.79,-23.93 -85.67,-42.91 -17.88,-18.98 -26.81,-44 -26.81,-75.08 0,-43.73 18.15,-79.48 54.59,-107.12 36.44,-27.64 83.88,-41.53 142.46,-41.53 29.29,0 57.2,2.75 84.02,8.25 26.68,5.5 51.7,13.75 75.08,24.75l-49.5 125.27c-18.84,-12.52 -35.75,-22 -50.74,-28.33 -15.13,-6.33 -28.06,-9.49 -39.06,-9.49 -9.21,0 -16.5,1.93 -22.14,5.78 -5.64,3.99 -8.53,9.07 -8.53,15.54 0,10.45 15.81,19.11 47.58,25.85 7.43,1.51 13.34,2.89 17.6,3.99 40.57,9.63 70.41,23.79 89.52,42.49 19.11,18.7 28.6,43.04 28.6,73.16 0,46.75 -18.84,84.7 -56.38,114.13 -37.68,29.43 -87.32,44.14 -149.06,44.14 -33.69,0 -66.55,-3.85 -98.73,-11.55 -32.31,-7.56 -63.39,-18.98 -93.51,-33.96z"/>
   <path class="fil4" d="M1686.31 624.44l0 -624.44 199.53 0 0 172.44c0,23.65 -0.28,42.08 -0.83,55.14 -0.55,13.2 -1.37,25.85 -2.47,37.95 17.46,-23.93 36.85,-41.8 58.03,-53.49 21.18,-11.69 45.1,-17.46 71.64,-17.46 44.42,0 79.48,13.48 105.33,40.29 25.99,26.81 38.92,63.53 38.92,110.01l0 279.56 -203.11 0 0 -210.25c0,-21.04 -2.06,-35.34 -6.19,-42.91 -4.26,-7.7 -11.55,-11.55 -22,-11.55 -11.82,0 -20.76,4.54 -26.95,13.75 -6.19,9.07 -9.21,22.69 -9.21,40.7l0 210.25 -202.69 0z"/>
   <polygon class="fil3" points="464.49,659.11 2155.53,659.11 2155.53,800.87 375.51,800.87 "/>
   <path class="fil5" d="M510.08 769.69l-40.45 0 -13.17 21.14 -31.16 0 74.4 -121.68 32.06 0 11.6 121.68 -31.31 0 -1.96 -21.14zm-1.78 -24.2l-2.14 -38.73 -0.3 0 -21.99 38.73 24.43 0zm44.2 45.35l30.95 -121.68 41.66 0c15.76,0.11 27.76,6.02 36.01,17.75 8.25,11.72 10.2,26.14 5.85,43.25 -4.35,17.11 -13.66,31.5 -27.91,43.17 -14.25,11.67 -29.22,17.51 -44.91,17.51l-41.65 0zm53.51 -94.89l-17.32 68.1 6.59 0c8.76,0.11 17.06,-2.56 24.89,-8.01 7.83,-5.43 13.25,-14.09 16.27,-25.96 2.77,-10.89 1.91,-19.31 -2.57,-25.23 -4.48,-5.94 -11.47,-8.91 -20.96,-8.91l-6.89 0zm110.19 -26.79l8.47 73.91 46.22 -73.91 31.91 0 -79.2 121.68 -22.77 0 -16.54 -121.68 31.91 0zm151.41 26.79l-34.91 0 -5.17 20.33 33.11 0 -6.81 26.79 -33.11 0 -5.34 20.98 34.91 0 -6.81 26.79 -64.28 0 30.95 -121.68 64.28 0 -6.81 26.79zm65.11 45.03l22.82 49.87 -36.56 0 -15.81 -46.8 -0.3 0 -11.91 46.8 -29.37 0 30.96 -121.68 43.9 0c11.16,0.11 19.73,3.15 25.7,9.12 5.98,5.97 7.3,15.46 3.99,28.48 -2.13,8.39 -6.15,15.84 -12.05,22.35 -5.9,6.51 -13.04,10.52 -21.41,12.02l0.04 -0.16zm-16.95 -47.61l-7.72 30.34 2.84 0c0.48,0.11 0.96,0.16 1.46,0.16 0.5,0 0.95,0 1.35,0 4.45,-0.22 8.75,-1.32 12.91,-3.31 4.15,-1.99 6.98,-5.94 8.48,-11.86 1.52,-5.97 0.72,-9.98 -2.42,-12 -3.14,-1.99 -6.87,-3.12 -11.21,-3.34 -0.4,0 -0.85,0 -1.35,0 -0.5,0 -1,0 -1.5,0l-2.84 0zm116.81 2.58l-24.14 94.89 -29.37 0 24.14 -94.89 -24.27 0 6.81 -26.79 77.91 0 -6.81 26.79 -24.27 0zm71.09 -26.79l-30.96 121.68 -29.37 0 30.96 -121.68 29.37 0zm91.17 6.78l-17.93 24.53c-2.09,-2.37 -4.63,-4.28 -7.61,-5.73 -2.98,-1.45 -6.26,-2.18 -9.86,-2.18 -0.5,0 -1.06,0.03 -1.67,0.08 -0.61,0.06 -1.25,0.19 -1.9,0.4 -2.43,0.54 -4.8,1.61 -7.11,3.23 -2.31,1.61 -3.8,3.77 -4.49,6.46 -0.66,2.58 -0.28,4.65 1.11,6.21 1.4,1.56 3.03,2.82 4.88,3.79 0.72,0.32 1.42,0.62 2.1,0.89 0.68,0.27 1.35,0.51 1.99,0.72l6.91 2.26c7.24,2.58 12.91,6.32 17,11.22 4.1,4.89 4.89,12.29 2.37,22.19 -0.11,0.43 -0.22,0.86 -0.33,1.29 -0.11,0.43 -0.22,0.86 -0.33,1.29 -1.62,5.59 -3.96,11.06 -7.02,16.38 -3.05,5.32 -7.17,9.93 -12.35,13.8 -4.7,3.55 -9.66,6.19 -14.9,7.91 -5.23,1.72 -10.4,2.8 -15.5,3.23 -0.8,0 -1.58,0.03 -2.34,0.08 -0.76,0.06 -1.5,0.08 -2.2,0.08 -7.09,0 -13.72,-1.21 -19.9,-3.63 -6.18,-2.42 -11.61,-5.78 -16.31,-10.09l19.11 -25.66c2.79,3.55 6.04,6.56 9.76,9.04 3.71,2.47 8.07,3.71 13.06,3.71 0.2,0 0.4,0 0.6,0 0.2,0 0.4,0 0.6,0 3.35,-0.21 6.63,-1.31 9.83,-3.31 3.2,-1.99 5.31,-4.98 6.33,-8.96 0.76,-3.01 0.26,-5.43 -1.53,-7.26 -1.78,-1.83 -3.93,-3.28 -6.46,-4.35 -1.09,-0.43 -2.19,-0.83 -3.29,-1.21 -1.11,-0.37 -2.11,-0.72 -3.03,-1.05 -0.17,-0.11 -0.38,-0.19 -0.61,-0.24 -0.24,-0.05 -0.44,-0.13 -0.61,-0.24 -8.21,-2.69 -14.43,-6.13 -18.65,-10.33 -4.23,-4.19 -4.88,-12.05 -1.95,-23.56 3.15,-12.37 9.34,-22.27 18.57,-29.7 9.23,-7.42 19.49,-11.13 30.78,-11.13 2.3,0 4.61,0.13 6.94,0.4 2.33,0.27 4.61,0.73 6.84,1.37 3.58,0.86 7.02,1.99 10.3,3.39 3.29,1.4 6.2,3.01 8.73,4.84l0.04 -0.16zm49.67 -6.78l-30.95 121.68 -29.37 0 30.95 -121.68 29.37 0zm-11.78 121.68l30.95 -121.68 29.37 0 34.86 74.4 0.3 0 18.93 -74.4 29.37 0 -30.95 121.68 -29.37 0 -34.82 -74.56 -0.3 0 -18.96 74.56 -29.37 0zm203.67 -67.94l58.28 0c-2.37,8.93 -5.2,17.3 -8.48,25.09 -3.28,7.8 -8.39,15.52 -15.33,23.16 -7.6,8.28 -15.9,14.31 -24.9,18.07 -9,3.77 -18.24,5.65 -27.73,5.65 -17.78,0 -30.76,-5.89 -38.95,-17.67 -8.19,-11.78 -9.85,-27.24 -4.98,-46.4 5.04,-19.8 14.74,-35.67 29.11,-47.61 14.38,-11.94 30.65,-17.91 48.83,-17.91 11.59,0 21.04,2.82 28.34,8.47 7.3,5.65 11.95,14.17 13.94,25.58l-31.03 12.43c-0.55,-5.7 -2.47,-10.33 -5.76,-13.88 -3.29,-3.55 -7.89,-5.33 -13.78,-5.33 -9.09,0 -17.04,3.66 -23.84,10.98 -6.81,7.31 -11.57,15.33 -14.28,24.05 -0.24,0.54 -0.43,1.1 -0.58,1.69 -0.15,0.59 -0.3,1.16 -0.43,1.69 -0.03,0.11 -0.06,0.24 -0.1,0.41 -0.04,0.16 -0.09,0.35 -0.15,0.56 -2.15,9.25 -1.67,17.75 1.45,25.5 3.13,7.74 9.43,11.62 18.92,11.62 6.39,0 12.24,-1.78 17.54,-5.32 5.3,-3.55 9.14,-8.82 11.52,-15.82l-23.97 0 6.36 -25.01zm177.54 0l58.29 0c-2.37,8.93 -5.2,17.3 -8.48,25.09 -3.28,7.8 -8.39,15.52 -15.33,23.16 -7.6,8.28 -15.9,14.31 -24.9,18.07 -9,3.77 -18.24,5.65 -27.73,5.65 -17.78,0 -30.76,-5.89 -38.95,-17.67 -8.19,-11.78 -9.85,-27.24 -4.98,-46.4 5.04,-19.8 14.74,-35.67 29.11,-47.61 14.38,-11.94 30.66,-17.91 48.83,-17.91 11.59,0 21.03,2.82 28.33,8.47 7.3,5.65 11.95,14.17 13.94,25.58l-31.03 12.43c-0.55,-5.7 -2.46,-10.33 -5.76,-13.88 -3.29,-3.55 -7.89,-5.33 -13.78,-5.33 -9.09,0 -17.04,3.66 -23.84,10.98 -6.81,7.31 -11.57,15.33 -14.28,24.05 -0.24,0.54 -0.43,1.1 -0.58,1.69 -0.15,0.59 -0.3,1.16 -0.43,1.69 -0.03,0.11 -0.06,0.24 -0.1,0.41 -0.04,0.16 -0.09,0.35 -0.14,0.56 -2.15,9.25 -1.67,17.75 1.45,25.5 3.13,7.74 9.43,11.62 18.92,11.62 6.39,0 12.24,-1.78 17.54,-5.32 5.3,-3.55 9.14,-8.82 11.52,-15.82l-23.97 0 6.36 -25.01zm125.6 18.07l22.82 49.87 -36.56 0 -15.81 -46.8 -0.3 0 -11.91 46.8 -29.37 0 30.96 -121.68 43.9 0c11.16,0.11 19.73,3.15 25.7,9.12 5.98,5.97 7.3,15.46 3.99,28.48 -2.13,8.39 -6.15,15.84 -12.05,22.35 -5.9,6.51 -13.04,10.52 -21.41,12.02l0.04 -0.16zm-16.95 -47.61l-7.72 30.34 2.84 0c0.48,0.11 0.96,0.16 1.46,0.16 0.5,0 0.95,0 1.35,0 4.45,-0.22 8.75,-1.32 12.91,-3.31 4.15,-1.99 6.98,-5.94 8.48,-11.86 1.52,-5.97 0.72,-9.98 -2.42,-12 -3.14,-1.99 -6.87,-3.12 -11.21,-3.34 -0.4,0 -0.85,0 -1.35,0 -0.5,0 -1,0 -1.5,0l-2.84 0zm136.48 -28.24c16.25,0.11 29.24,6 38.95,17.67 9.72,11.67 12.23,26.71 7.55,45.11 -5.01,19.69 -14.96,35.77 -29.88,48.25 -14.91,12.48 -31.45,18.72 -49.63,18.72 -18.08,0 -31.43,-6.24 -40.04,-18.72 -8.61,-12.48 -10.41,-28.57 -5.41,-48.25 4.68,-18.4 14.85,-33.43 30.5,-45.11 15.65,-11.67 31.62,-17.51 47.9,-17.51l0.04 -0.16zm-7.8 30.66c-8.81,0.11 -17.17,3.42 -25.07,9.93 -7.9,6.51 -12.92,13.96 -15.05,22.35 -2.65,10.43 -1.74,19.09 2.76,25.98 4.49,6.89 11.13,10.33 19.92,10.33 8.79,0 17.18,-3.44 25.18,-10.35 8,-6.91 13.33,-15.57 15.99,-26.04 2.14,-8.42 0.92,-15.9 -3.67,-22.41 -4.58,-6.54 -11.27,-9.79 -20.06,-9.79zm151.51 -26.63l29.37 0 -17.41 68.43c-2.02,7.96 -4.56,15.65 -7.59,23.08 -3.04,7.42 -8.1,14.09 -15.2,20.01 -4.58,3.87 -9.6,6.8 -15.05,8.8 -5.45,1.99 -10.85,3.31 -16.21,3.95 -1.65,0.22 -3.3,0.38 -4.92,0.48 -1.63,0.11 -3.19,0.16 -4.69,0.16 -1.5,0 -3.03,-0.06 -4.6,-0.16 -1.57,-0.11 -3.13,-0.27 -4.67,-0.48 -5.03,-0.65 -9.76,-1.96 -14.2,-3.95 -4.43,-1.99 -7.96,-4.93 -10.57,-8.8 -4.09,-5.92 -5.76,-12.59 -5.02,-20.01 0.74,-7.43 2.11,-15.06 4.11,-22.92l17.45 -68.59 29.37 0 -16.3 64.07c-0.19,0.76 -0.36,1.43 -0.52,2.02 -0.15,0.59 -0.31,1.21 -0.47,1.85 -1.76,7.31 -2.3,14.04 -1.61,20.17 0.69,6.13 5.38,9.2 14.06,9.2 8.69,0 14.94,-3.06 18.75,-9.2 3.81,-6.13 6.69,-12.86 8.65,-20.17 0.17,-0.65 0.32,-1.26 0.47,-1.85 0.15,-0.59 0.31,-1.21 0.47,-1.86l16.34 -64.23zm16.99 121.68l30.96 -121.68 44.95 0c12.16,0.11 21.22,3.33 27.2,9.68 5.98,6.35 7.18,16.52 3.63,30.5 -3.64,14.31 -9.77,24.77 -18.4,31.39 -8.63,6.62 -19.33,9.93 -32.11,9.93l-16.63 0 -10.22 40.18 -29.37 0zm53.84 -96.18l-7.72 30.34 4.94 0c5.27,0.11 10.26,-0.46 14.96,-1.7 4.71,-1.24 8.01,-5.57 9.9,-12.99 1.96,-7.72 1.02,-12.26 -2.83,-13.61 -3.84,-1.37 -8.61,-2.05 -14.31,-2.05l-4.94 0z"/>
  </g>
 </g>
</svg>
